<?xml version="1.0" encoding="UTF-8" standalone="no"?>
<svg
   xmlns:dc="http://purl.org/dc/elements/1.1/"
   xmlns:cc="http://creativecommons.org/ns#"
   xmlns:rdf="http://www.w3.org/1999/02/22-rdf-syntax-ns#"
   xmlns:svg="http://www.w3.org/2000/svg"
   xmlns="http://www.w3.org/2000/svg"
   xmlns:sodipodi="http://sodipodi.sourceforge.net/DTD/sodipodi-0.dtd"
   xmlns:inkscape="http://www.inkscape.org/namespaces/inkscape"
   version="1.1"
   id="Layer_1"
   x="0px"
   y="0px"
   width="32px"
   height="32px"
   viewBox="0 0 32 32"
   enable-background="new 0 0 32 32"
   xml:space="preserve"
   inkscape:version="0.48.2 r9819"
   sodipodi:docname="noun_project_5058.svg"><metadata
   id="metadata8"><rdf:RDF><cc:Work
       rdf:about=""><dc:format>image/svg+xml</dc:format><dc:type
         rdf:resource="http://purl.org/dc/dcmitype/StillImage" /><dc:title></dc:title></cc:Work></rdf:RDF></metadata><defs
   id="defs6" /><sodipodi:namedview
   pagecolor="#ffffff"
   bordercolor="#666666"
   borderopacity="1"
   objecttolerance="10"
   gridtolerance="10"
   guidetolerance="10"
   inkscape:pageopacity="0"
   inkscape:pageshadow="2"
   inkscape:window-width="640"
   inkscape:window-height="480"
   id="namedview4"
   showgrid="false"
   inkscape:zoom="7.375"
   inkscape:cx="16"
   inkscape:cy="16"
   inkscape:window-x="0"
   inkscape:window-y="0"
   inkscape:window-maximized="0"
   inkscape:current-layer="Layer_1" />
<path
   id="star3"
   d="M22.944,28.681c-0.42,0-0.836-0.133-1.189-0.393l-5.75-4.247l-5.751,4.247c-0.354,0.26-0.771,0.393-1.189,0.393  c-0.412,0-0.824-0.129-1.175-0.385c-0.707-0.511-1-1.422-0.723-2.25l2.26-6.783l-5.815-4.158c-0.71-0.509-1.009-1.416-0.74-2.246  c0.268-0.825,1.037-1.382,1.904-1.382c0.004,0,0.01,0,0.014,0l7.15,0.057l2.157-6.816c0.262-0.831,1.035-1.397,1.906-1.397  s1.645,0.566,1.905,1.397l2.156,6.816l7.146-0.057c0.004,0,0.015,0,0.019,0c0.863,0,1.637,0.557,1.899,1.382  c0.271,0.831-0.024,1.737-0.735,2.246l-5.812,4.158l2.263,6.783c0.273,0.826-0.02,1.737-0.721,2.25  C23.771,28.552,23.356,28.681,22.944,28.681L22.944,28.681z"
   style="fill:#b3b3b3"
   inkscape:export-filename="C:\Users\Kolja\workspace\ws.logv.trainminitor.MainActivity\res\drawable-ldpi\check_on_big.png"
   inkscape:export-xdpi="124.21135"
   inkscape:export-ydpi="124.21135" />
</svg>