<svg xmlns="http://www.w3.org/2000/svg" xmlns:xlink="http://www.w3.org/1999/xlink" version="1.1" id="Layer_1" x="0px" y="0px" width="100px" height="100px" viewBox="0 0 100 100" enable-background="new 0 0 100 100" xml:space="preserve">
<g id="Captions">
	<rect x="-192" width="185" height="99"/>
	<rect y="-36" width="100" height="30"/>
	<text transform="matrix(1 0 0 1 66 -19.5)" fill="#000000" font-family="'Helvetica'" font-size="2.4">http://thenounproject.com</text>
	<text transform="matrix(1 0 0 1 7.166 -24.5)" fill="#000000" font-family="'Helvetica-Bold'" font-size="6.1578">The Noun Project</text>
	<text transform="matrix(1 0 0 1 8.2861 -19.6992)" fill="#000000" font-family="'Helvetica-Bold'" font-size="4">Icon Template</text>
	<text transform="matrix(1 0 0 1 -178.5 10.5)" fill="#000000" font-family="'Helvetica-Bold'" font-size="6.1578">Reminders</text>
	<line fill="#000000" stroke="#FFFFFF" stroke-miterlimit="10" x1="8" y1="-14.5" x2="18" y2="-14.5"/>
	<line fill="#000000" stroke="#FFFFFF" stroke-miterlimit="10" x1="-179" y1="16.5" x2="-162" y2="16.5"/>
	<g>
		<g>
			<g>
				<rect x="-170.802" y="31.318" fill="#000000" width="8.721" height="8.642"/>
				<path fill="#000000" d="M-164.455,42.312h4.747v-4.703h-4.747V42.312z M-159.266,42.749h-5.63V37.17h5.63V42.749      L-159.266,42.749z M-166.221,44.062h8.279v-8.203h-8.279V44.062L-166.221,44.062z M-157.5,44.5h-9.163v-9.079h9.163V44.5      L-157.5,44.5z"/>
				<polygon fill="#000000" points="-166.149,44.133 -166.292,43.991 -158.013,35.787 -157.871,35.929     "/>
			</g>
		</g>
	</g>
	<rect x="-179" y="58" fill="none" width="35" height="32.5"/>
	<text transform="matrix(1 0 0 1 -179 60.1582)" fill="#000000" font-family="'Helvetica-Bold'" font-size="3">Strokes</text>
	<text transform="matrix(1 0 0 1 -179 65.1582)" fill="#000000" font-family="'Helvetica'" font-size="2.4">Try to keep strokes at 4px</text>
	<text transform="matrix(1 0 0 1 -179 70.1582)" fill="#000000" font-family="'Helvetica'" font-size="2.4">Minimum stroke weight is 2px</text>
	<text transform="matrix(1 0 0 1 -179 74.6582)" fill="#000000" font-family="'Helvetica'" font-size="2.4">For thicker strokes use even </text>
	<text transform="matrix(1 0 0 1 -179 77.6582)" fill="#000000" font-family="'Helvetica'" font-size="2.4">numbers: 6px, 8px etc.</text>
	<text transform="matrix(1 0 0 1 -179 82.1582)" fill="#000000" font-family="'Helvetica-Bold'" font-size="2.4">Remember to expand strokes </text>
	<text transform="matrix(1 0 0 1 -179 85.1582)" fill="#000000" font-family="'Helvetica-Bold'" font-size="2.4">before saving as an SVG </text>
	<rect x="-136.5" y="58" fill="none" width="35" height="32.5"/>
	<text transform="matrix(1 0 0 1 -136.5 60.1582)" fill="#000000" font-family="'Helvetica-Bold'" font-size="3">Size</text>
	<text transform="matrix(1 0 0 1 -136.5 65.1582)" fill="#000000" font-family="'Helvetica'" font-size="2.4">Cannot be wider or taller than </text>
	<text transform="matrix(1 0 0 1 -136.5 68.6582)" fill="#000000" font-family="'Helvetica'" font-size="2.4">100px (artboard size)</text>
	<text transform="matrix(1 0 0 1 -136.5 73.6582)" fill="#000000" font-family="'Helvetica'" font-size="2.4">Scale your icon to fill as much of </text>
	<text transform="matrix(1 0 0 1 -136.5 76.6582)" fill="#000000" font-family="'Helvetica'" font-size="2.4">the artboard as possible</text>
	<rect x="-94" y="58" fill="none" width="35" height="32.5"/>
	<text transform="matrix(1 0 0 1 -94 60.1582)" fill="#000000" font-family="'Helvetica-Bold'" font-size="3">Ungroup</text>
	<text transform="matrix(1 0 0 1 -94 65.1582)" fill="#000000" font-family="'Helvetica'" font-size="2.4">If your design has more than one </text>
	<text transform="matrix(1 0 0 1 -94 68.1582)" fill="#000000" font-family="'Helvetica'" font-size="2.4">shape, make sure to ungroup</text>
	<rect x="-50" y="58" fill="none" width="35" height="32.5"/>
	<text transform="matrix(1 0 0 1 -50 60.1582)" fill="#000000" font-family="'Helvetica-Bold'" font-size="3">Save as</text>
	<text transform="matrix(1 0 0 1 -50 65.1582)" fill="#000000" font-family="'Helvetica'" font-size="2.4">Save as .SVG and make sure </text>
	<text transform="matrix(1 0 0 1 -50 68.1582)" fill="#000000" font-family="'Helvetica'" font-size="2.4">&#8220;Use Artboards&#8221; is checked</text>
	<text transform="matrix(1.0074 0 0 1 -125.542 30.5947)" fill="#000000" font-family="'Helvetica'" font-size="2.5731">100px</text>
	<text transform="matrix(1.0074 0 0 1 -41 39)" fill="#000000" font-family="'Helvetica-Bold'" font-size="5.1462">.SVG</text>
	<rect x="-126.514" y="34.815" fill="#000000" width="10.261" height="10.185"/>
	<rect x="-126.477" y="31.766" fill="#000000" width="0.522" height="2.337"/>
	<rect x="-116.812" y="31.766" fill="#000000" width="0.523" height="2.337"/>
	<rect x="-127" y="32.337" fill="#000000" width="11.233" height="0.572"/>
	<g>
		<rect x="-83.805" y="33.844" fill="#000000" width="10.305" height="10.156"/>
		<rect x="-76.809" y="28.707" fill="#000000" width="3.308" height="3.261"/>
	</g>
	<rect x="-178.5" y="22.5" fill="#000000" stroke="#FFFFFF" stroke-miterlimit="10" width="30" height="30"/>
	<rect x="-136.5" y="22.5" fill="#000000" stroke="#FFFFFF" stroke-miterlimit="10" width="30" height="30"/>
	<rect x="-93.5" y="22.5" fill="#000000" stroke="#FFFFFF" stroke-miterlimit="10" width="30" height="30"/>
	<rect x="-49.5" y="22.5" fill="#000000" stroke="#FFFFFF" stroke-miterlimit="10" width="30" height="30"/>
</g>
<g>
	<path fill="#000000" d="M50.521,37.609c-1.32,0-2.389,1.071-2.389,2.384V57.98H30.711c-1.325,0-2.394,1.071-2.394,2.399   c0,1.317,1.069,2.384,2.394,2.384h19.81c0.627,0,1.241-0.256,1.692-0.702c0.443-0.44,0.697-1.062,0.697-1.682V39.993   C52.91,38.68,51.843,37.609,50.521,37.609z"/>
	<path fill="#000000" d="M85.135,58.771c0-5.609-1.334-10.898-3.649-15.616c1.066-0.354,2.026-0.907,2.818-1.697   c3.722-3.746,2.367-11.125-3.025-16.486c-5.395-5.364-12.783-6.679-16.502-2.931c-1.014,1.02-1.642,2.317-1.922,3.767   c-4.103-1.655-8.576-2.589-13.272-2.589c-4.546,0-8.873,0.883-12.871,2.438c-0.307-1.332-0.92-2.522-1.869-3.484   c-3.723-3.742-11.111-2.426-16.505,2.938c-5.392,5.363-6.749,12.74-3.028,16.481c0.681,0.69,1.485,1.199,2.373,1.548   c-2.317,4.723-3.653,10.012-3.653,15.631c0,11.681,5.657,22.014,14.353,28.493l-2.835,4.434c-1.425,2.224-0.776,5.179,1.451,6.601   c0.799,0.511,1.687,0.753,2.57,0.753c1.581,0,3.117-0.776,4.03-2.202l3.165-4.946c3.981,1.541,8.294,2.421,12.82,2.421   c4.764,0,9.301-0.952,13.455-2.653l3.398,5.327c0.915,1.417,2.458,2.197,4.035,2.197c0.882,0,1.774-0.241,2.572-0.753   c2.221-1.422,2.87-4.38,1.447-6.604l-3.184-4.964C79.711,80.37,85.135,70.215,85.135,58.771z M49.582,84.765   c-14.354-0.03-25.969-11.64-25.994-25.994c0.025-14.355,11.641-25.972,25.994-25.996c14.356,0.023,25.971,11.641,25.996,25.996   C75.553,73.125,63.938,84.734,49.582,84.765z"/>
</g>
<path fill="#000000" d="M19.788,16.182c-0.853-0.858-2.24-0.858-3.091,0l-7.116,7.111c-0.855,0.853-0.855,2.24,0,3.091  c0.427,0.427,0.988,0.644,1.548,0.644c0.56,0,1.12-0.217,1.547-0.644l7.112-7.111C20.644,18.417,20.644,17.032,19.788,16.182z"/>
<path fill="#000000" d="M17.417,8.503c-0.855-0.854-2.24-0.854-3.095,0L1.062,21.764c-0.856,0.855-0.856,2.24,0,3.095  c0.427,0.428,0.985,0.639,1.547,0.639c0.558,0,1.118-0.211,1.548-0.639l13.261-13.263C18.272,10.743,18.272,9.353,17.417,8.503z"/>
<path fill="#000000" d="M82.916,16.182c-0.849-0.858-2.234-0.858-3.09,0c-0.855,0.851-0.855,2.235,0,3.091l7.111,7.111  c0.428,0.427,0.987,0.644,1.548,0.644c0.562,0,1.12-0.217,1.548-0.644c0.855-0.851,0.855-2.238,0-3.091L82.916,16.182z"/>
<path fill="#000000" d="M98.554,21.764L85.293,8.503c-0.855-0.854-2.24-0.854-3.097,0c-0.854,0.85-0.854,2.24,0,3.093l13.261,13.263  c0.431,0.428,0.991,0.639,1.548,0.639c0.563,0,1.12-0.211,1.549-0.639C99.408,24.004,99.408,22.619,98.554,21.764z"/>
</svg>